<svg aria-hidden="true" style="width:0;height:0;position:absolute;overflow:hidden" xmlns="http://www.w3.org/2000/svg"><defs><symbol id="icon-menu" viewBox="0 0 56 32"><path d="M1.882.941h52.706a1.882 1.882 0 1 1 0 3.764H1.882a1.882 1.882 0 1 1 0-3.764zM1.882 14.118h52.706a1.882 1.882 0 1 1 0 3.764H1.882a1.882 1.882 0 1 1 0-3.764zM1.882 27.294h52.706a1.882 1.882 0 1 1 0 3.764H1.882a1.882 1.882 0 1 1 0-3.764z"/></symbol><symbol id="icon-arrow-left" viewBox="0 0 20 32"><path d="m7.16 16 12.532 12.445L16.112 32 0 16 16.112 0l3.58 3.555L7.16 16z"/></symbol><symbol id="icon-arrow-right" viewBox="0 0 20 32"><path d="M12.546 15.167.666 26.964l3.393 3.37 15.273-15.167L4.059 0 .666 3.37l11.88 11.797z"/></symbol><symbol id="icon-menu-close" viewBox="0 0 32 32"><path d="m18.228 16 13.1-13.1A1.58 1.58 0 0 0 29.1.672L16 13.772 2.9.656A1.586 1.586 0 1 0 .656 2.9L13.772 16 .656 29.1a1.593 1.593 0 0 0-.552 1.139 1.572 1.572 0 0 0 1.003 1.532 1.578 1.578 0 0 0 1.776-.444l13.116-13.1 13.1 13.1a1.58 1.58 0 0 0 2.228-2.229l-13.1-13.1z"/></symbol><symbol id="icon-magnifier" viewBox="0 0 30 32"><path d="M12.8 26.4a12.722 12.722 0 0 0 7.835-2.701l7.034 7.034 2.262-2.262-7.034-7.034a12.72 12.72 0 0 0 2.702-7.837c0-7.058-5.742-12.8-12.8-12.8s-12.8 5.742-12.8 12.8c0 7.058 5.742 12.8 12.8 12.8zm0-22.4c5.294 0 9.6 4.306 9.6 9.6s-4.306 9.6-9.6 9.6-9.6-4.306-9.6-9.6S7.506 4 12.8 4z"/></symbol><symbol id="icon-arrow" viewBox="0 0 52 32"><path d="M3.371 6.372 25.999 29 48.627 6.372l-2.828-2.828-19.8 19.8-19.8-19.8-2.828 2.828z"/></symbol><symbol id="icon-heart-red" viewBox="0 0 35 32"><path d="m17.684 32-2.564-2.302C6.013 21.554 0 16.183 0 9.591 0 4.22 4.28 0 9.726 0c3.077 0 6.03 1.413 7.958 3.645C19.612 1.413 22.565 0 25.642 0c5.447 0 9.726 4.22 9.726 9.591 0 6.592-6.013 11.963-15.12 20.124l-2.564 2.284z"/></symbol><symbol id="icon-heart-white" viewBox="0 0 35 32"><path fill="#fd5103" style="fill:var(--color1,#fd5103)" d="m17.684 32-2.564-2.302C6.013 21.554 0 16.183 0 9.591 0 4.22 4.28 0 9.726 0c3.077 0 6.03 1.413 7.958 3.645C19.612 1.413 22.565 0 25.642 0c5.447 0 9.726 4.22 9.726 9.591 0 6.592-6.013 11.963-15.12 20.124l-2.564 2.284z"/><path fill="#fcfcfc" style="fill:var(--color2,#fcfcfc)" d="m17.684 28.632-2.076-1.817c-7.373-6.429-12.24-10.67-12.24-15.874 0-4.24 3.464-7.572 7.874-7.572 2.491 0 4.882 1.115 6.442 2.877 1.56-1.762 3.951-2.877 6.442-2.877 4.409 0 7.874 3.332 7.874 7.572 0 5.204-4.867 9.444-12.24 15.888l-2.076 1.803z"/></symbol></defs></svg>