<svg width="18" height="18" viewBox="0 0 18 18" fill="none" xmlns="http://www.w3.org/2000/svg">
<path d="M10.2537 9.00001L17.6226 1.63112C17.7683 1.46107 17.8444 1.24234 17.8357 1.01863C17.8271 0.794916 17.7343 0.582704 17.576 0.424397C17.4177 0.266091 17.2055 0.173351 16.9818 0.16471C16.7581 0.156069 16.5393 0.232163 16.3693 0.377787L9.00041 7.74668L1.63152 0.368898C1.46414 0.201517 1.23712 0.107483 1.00041 0.107483C0.763698 0.107483 0.53668 0.201517 0.369299 0.368898C0.201918 0.536279 0.107884 0.763296 0.107884 1.00001C0.107884 1.23672 0.201918 1.46374 0.369299 1.63112L7.74708 9.00001L0.369299 16.3689C0.276249 16.4486 0.200675 16.5466 0.147321 16.6569C0.0939669 16.7672 0.0639846 16.8873 0.0592561 17.0097C0.0545277 17.1322 0.0751548 17.2542 0.119843 17.3683C0.164532 17.4824 0.232317 17.586 0.318943 17.6726C0.40557 17.7592 0.509167 17.827 0.623234 17.8717C0.737301 17.9164 0.859374 17.937 0.981791 17.9323C1.10421 17.9275 1.22433 17.8976 1.33461 17.8442C1.44489 17.7909 1.54295 17.7153 1.62263 17.6222L9.00041 10.2533L16.3693 17.6222C16.5393 17.7679 16.7581 17.8439 16.9818 17.8353C17.2055 17.8267 17.4177 17.7339 17.576 17.5756C17.7343 17.4173 17.8271 17.2051 17.8357 16.9814C17.8444 16.7577 17.7683 16.5389 17.6226 16.3689L10.2537 9.00001Z" fill="#202025"/>
</svg>
