<svg xmlns="http://www.w3.org/2000/svg" width="345" height="380" fill="none">
  <g clip-path="url(#a)">
    <path fill="#FD5103" d="M320.555 97.33C290.843 53.502 216.186-15.958 102.609 28.796-10.968 73.549 1.982 151.115 7.046 181.135c5.065 30.019 11.793 68.96 56.31 98.058 44.517 29.098 94.339 29.923 147.618 27.396 53.278-2.527 114.523-33.28 126.269-74.884 11.746-41.604 13.022-90.547-16.688-134.374Z"/>
    <path fill="#F2F0EB" d="M153.228 99.055s-11.573 7.351-11.047 8.663c.526 1.313 3.419 5.775 3.419 5.775s8.266 15.942 18.937 18.9c14.201 3.937 19.725-3.938 24.196-12.075 4.472-8.138 5.26-63.262 3.682-64.05-1.578-.786-9.994 3.676-12.624 14.701-2.63 11.026-4.734 32.812-6.312 34.125-1.578 1.312-14.991-2.626-14.991-2.626l-5.26-3.413Z"/>
    <path stroke="#DCD8DA" stroke-miterlimit="10" stroke-width=".915" d="M145.764 112.904s2.629.86 6.541-.668c6.355-2.484 5.704-8.838 5.704-8.838"/>
    <path fill="#F5AA8A" d="M121.928 95.118s-8.765-1.4-8.765 1.4 2.804 3.85 4.557 3.85c1.754 0 1.754 1.75 4.91 1.75s5.961 1.05 10.521.7c4.558-.35 9.468 3.15 9.468 3.15s1.754 3.937 7.978-.088c1.706-1.102 3.157-2.626 2.894-4.462-.263-1.838-2.262-8.085-3.858-9.45-2.456-2.1-27.705 3.15-27.705 3.15Z"/>
    <path stroke="#CB8469" stroke-linecap="round" stroke-linejoin="round" stroke-miterlimit="10" stroke-width=".915" d="M119.036 100.281s-.525-1.312 4.735-1.575c5.26-.263 12.887-.788 12.887-.788"/>
    <path fill="#93B3C5" d="M130.603 99.39c18.763 0 33.974-3.101 33.974-6.927 0-3.825-15.211-6.927-33.974-6.927-18.763 0-33.974 3.102-33.974 6.927 0 3.826 15.211 6.927 33.974 6.927Z"/>
    <path fill="#A1C4DA" d="M153.224 67.12c-10.14-8.046-22.621-7.007-22.621-7.007s-12.48-1.038-22.62 7.006c-10.14 8.045-9.36 24.653-9.36 24.653s6.412 5.19 31.98 5.19 31.98-5.19 31.98-5.19.781-16.608-9.359-24.653Z"/>
    <path fill="#B3D9ED" d="M145.632 65.338c-4.34-3.028-8.764-4.542-12.668-5.254a28.977 28.977 0 0 0-1.547-.008 30.774 30.774 0 0 1 8.057 5.517c10.388 9.855 9.589 30.2 9.589 30.2l-.007.007c5.345-.784 8.764-1.82 10.826-2.647-.817-5.024-4.119-20.746-14.25-27.816Z"/>
    <path fill="#B3D9ED" d="M131.478 60.076c-.562.011-.874.037-.874.037s-.108-.008-.309-.02a31.31 31.31 0 0 1 2.532 4.137c5.067 9.849 4.809 26.493 4.518 32.601 1.703-.068 3.287-.165 4.782-.278-.184-6.852-1.235-23.065-6.91-31.85-1.22-1.885-2.482-3.4-3.739-4.627Z"/>
    <path fill="#93B3C5" d="M132.605 58.933c0-2.785-.375-5.041-2.002-5.041-1.626 0-2.002 2.256-2.002 5.04 0 1.101-.038 2.116.055 2.945.623.094 1.275.15 1.947.15.671 0 1.323-.057 1.947-.15.092-.83.055-1.844.055-2.944Z"/>
    <path fill="#63363B" d="M182.782 297.586s3.479 1.26 8.187 1.611c4.704.353 11.367-1.214 11.367-1.214s1.818 10.288 1.077 16.366c-.373 3.054-2.355 3.598-6.351 6.157-2.505 1.611-5.931 5.101-9.853 7.147-4.165 2.161-14.877 2.123-19.145.095-8.958-4.253-5.688-8.936-.425-12.733 1.863-1.34 5.114-4.203 6.746-6.177 4.821-5.809 8.397-11.252 8.397-11.252Z"/>
    <path stroke="#855E59" stroke-miterlimit="10" stroke-width=".868" d="M189.507 305.71s-4.443-2.405-9.257-1.996M186.238 310.392s-4.44-2.412-9.255-1.998M202.904 312.37s-5.29 2.644-8.902 5.928c-3.61 3.28-6.632 7.425-11.372 8.614-4.738 1.191-15.262.73-19.993-3.453"/>
    <path fill="#363B4E" d="M177.66 209.152c-.163-10.81-1.305-39.162.65-43.586 1.684-3.813 16.604-8.392 23.811-4.998 7.206 3.399 12.633 15.252 12.633 15.252s-.659 16.556-3.133 26.68c-2.473 10.124-7.181 30.281-7.181 30.281s4.545 12.026 3.679 23.085c-1.25 15.999-5.794 41.819-5.794 41.819s-3.938 1.68-9.767 1.561c-6.223-.13-10.028-1.228-10.028-1.228s.207-16.168-1.662-36.037c-.714-7.64-3.044-42.017-3.208-52.829Z"/>
    <path fill="#63363B" d="M229.857 301.428s3.538 1.083 8.257 1.201c4.717.117 11.293-1.772 11.293-1.772s2.326 10.186 1.888 16.294c-.221 3.066-2.174 3.711-6.038 6.46-2.423 1.732-5.674 5.391-9.487 7.624-4.056 2.366-14.756 2.858-19.119 1.042-9.157-3.806-6.123-8.642-1.056-12.695 1.792-1.433 4.899-4.453 6.432-6.502 4.529-6.045 7.83-11.652 7.83-11.652Z"/>
    <path stroke="#855E59" stroke-miterlimit="10" stroke-width=".868" d="M236.976 309.207s-4.553-2.183-9.342-1.537M233.943 314.043s-4.553-2.19-9.342-1.539M250.687 315.199s-5.151 2.901-8.596 6.357c-3.441 3.456-6.256 7.744-10.93 9.165-4.677 1.42-15.208 1.482-20.141-2.46"/>
    <path fill="#363B4E" d="M211.759 210.852c-1.816-29.138-.427-37.727 1.308-42.242 1.493-3.892 17.643-8.14 25.006-5.103 7.366 3.039 13.375 14.608 13.375 14.608s.636 14.14-.358 21.877c-.995 7.738-5.579 34.533-5.579 34.533s4.914 11.791 4.596 22.88c-.455 16.037-.726 43.157-.726 43.157s-3.847 1.872-9.676 2.038c-6.223.175-10.077-.732-10.077-.732s-7.047-23.232-9.898-42.988c-1.093-7.595-6.911-31.02-7.971-48.028Z"/>
    <path fill="#3E4858" d="M251.943 131.866c.359-6.859-.438-10.057.963-22.049.863-7.385 4.997-18.9 5.522-27.037.527-8.138 2.799-19.539-4.207-24.675-7.008-5.137-29.05-8.824-37.6-8.894-8.552-.072-15.79.757-23.68 4.956-8.7 4.63-8.55 12.187-9.732 24.937-.133 1.425-1.257 16.35-1.467 22.139-.497 13.749-1.21 25.604-2.78 33.15-1.571 7.548-4.149 36.248-4.167 38.072 0 0 6.312 5.95 11.923 7.35 5.61 1.4 10.841 2.087 18.235 3.15 1.447.207 3.507-10.501 3.507-10.501l3.155 11.55s12.626 2.1 22.444.7c9.818-1.401 21.39-7.35 21.39-7.35s-3.864-38.637-3.506-45.498Z"/>
    <path fill="#F2F0EB" d="M232.257 54.18s-22.038 64.311-24.218 65.001c-2.177.689-8.792-27.69-8.873-46.673-.083-18.983 2.812-23.108 2.812-23.108l30.279 4.78Z"/>
    <path stroke="#DCD8DA" stroke-miterlimit="10" stroke-width=".915" d="M210.913 67.118s-3.156 15.05-3.156 24.5c0 9.451.295 24.657.295 24.657"/>
    <path fill="#363B4E" d="M202.756 98.457c1.165 12.852 5.478 21.813 4.653 22.563-.826.748-5.963-9.452-8.419-15.402-1.631-3.95-4.94-16.14-5.694-21.776-.754-5.636 3.485-11.546 3.485-11.546s-3.064-4.357-2.721-8.135c.343-3.78 1.737-10.54 2.824-12.092 1.842-2.625 6.575-3.678 6.575-3.678s-1.868 37.213-.703 50.066Z"/>
    <path fill="#363B4E" d="M231.664 50.138s6.957.095 8.211 1.763c1.252 1.668-.822 10.65-1.312 14.9-.489 4.251-7.08 7.385-7.08 7.385s4.364 7.2.88 13.945c-4.17 8.069-22.115 34.907-24.957 32.887-1.613-1.146 8.554-18.979 15.757-41.384 5.475-17.026 8.501-29.496 8.501-29.496Z"/>
    <path fill="#fff" d="M227.375 45.105s3.644 2.008 4.629 3.689c.984 1.681.253 5.385.253 5.385s-2.201 6.3-4.758 9.108c-2.559 2.809-8.992 8.086-8.992 8.086l-6.642-11.302 15.51-14.966Z"/>
    <path fill="#fff" d="M207.942 45.432s-3.95 1.218-4.633 2.7c-.685 1.482-1.3 5.813-1.3 5.813s.275 4.29.882 6.996c.675 3.004 3.262 9.257 3.262 9.257l6.191-9.034-4.402-15.732Z"/>
    <path fill="#A4273B" d="M210.562 59.937s-8.376-6.742-9.184-2.707c-.808 4.035-1.332 10.965 1.516 10.994 2.853.03 6.471-3.664 6.471-3.664l1.197-4.623ZM213.217 60.569s9.442-5.14 9.519-1.026c.076 4.115-.642 11.027-3.453 10.547-2.809-.48-5.713-4.758-5.713-4.758l-.353-4.763Z"/>
    <path fill="#BD273B" d="M211.479 59.572c-1.757.104-2.751.459-2.959 2.183-.211 1.722-.827 4.192.383 4.657 1.212.466 4.648.884 5.114-.33.465-1.216.339-4.092.278-4.895-.061-.804-1.061-1.72-2.816-1.615Z"/>
    <path fill="#B77E20" d="M210.233 133.431a1.735 1.735 0 0 0 1.645 1.822 1.736 1.736 0 0 0 1.826-1.642 1.738 1.738 0 0 0-3.471-.18ZM210.671 150.694a1.738 1.738 0 0 0 1.646 1.823 1.736 1.736 0 1 0 .181-3.466 1.738 1.738 0 0 0-1.827 1.643ZM210.851 167.81a1.737 1.737 0 0 0 3.471.18 1.734 1.734 0 0 0-1.645-1.823 1.737 1.737 0 0 0-1.826 1.643Z"/>
    <path stroke="#59636D" stroke-miterlimit="10" stroke-width=".93" d="M206.88 123.205c-.526 9.975-1.058 13.685-.875 21.962.159 7.226 2.139 28.944 2.139 28.944"/>
    <path fill="#F5AA8A" d="m206.253 39.598 20.713-5.206 2.212 15.218s-1.958 1.646-5.206 4.196c-3.249 2.545-11.614 7.091-11.614 7.091s-3.46-4.044-4.796-5.595c-1.337-1.553-2.875-5.886-2.875-5.886l1.566-9.818Z"/>
    <path fill="#F5AA8A" d="M202.009 8.426c4.458-7.524 16.083-7.487 22.014-4.011 9.116 5.344 10.041 17.679 6.692 28.437-1.835 5.91-4.647 9.837-9.631 12.567-10.827 5.928-17.669 1.042-19.814-2.45-2.378-3.899-3.369-13.506-3.28-17.18.123-5.38-.44-9.832 4.019-17.363Z"/>
    <path fill="#411B00" d="M205.258 28.03c-.065.982-.881 1.72-1.819 1.656-.946-.066-1.655-.91-1.591-1.887.073-.973.89-1.716 1.828-1.652.937.063 1.648.908 1.582 1.883ZM219.028 29.1c-.062.977-.876 1.718-1.82 1.653-.941-.062-1.65-.907-1.584-1.885.068-.973.886-1.716 1.825-1.649.943.061 1.651.904 1.579 1.88Z"/>
    <path fill="#592221" d="M223.286 24.174c-2.415-1.617-6.706-2.189-8.943-.005-.208.203-.057.595.242.584.963-.034 1.924.09 2.914.016 1.695-.126 3.421.03 4.902.916.977.585 1.814-.889.885-1.51ZM200.993 24.072c.672-.544 2.198-.37 2.98-.301.954.085 2.25.238 3.14.567.239.089.506-.185.422-.42-.934-2.628-5.893-2.806-7.782-1.084-.847.774.381 1.933 1.24 1.238Z"/>
    <path fill="#D27D73" d="M211.284 37.93s-.283-.02-.754-.153a7.105 7.105 0 0 1-1.874-.82 6.163 6.163 0 0 1-1.115-.9c-.359-.403-.681-.83-.925-1.503a3.73 3.73 0 0 1-.103-.38c-.026-.187-.062-.387-.059-.572 0-.361.067-.755.227-1.098.308-.709.843-1.122 1.252-1.479.414-.354.8-.648 1.03-.938l.086-.11-.025.05.003-.006.006-.011.011-.022.023-.044.043-.088c.074-.13.088-.202.12-.286a7.97 7.97 0 0 0 .197-.632c.129-.453.207-.924.297-1.364.088-.444.165-.868.227-1.263l.343-1.919.144-.734s.255 1.068.361 2.698c.044.817.077 1.768-.043 2.827-.034.277-.057.519-.153.854a3.525 3.525 0 0 1-.146.446l-.036.091-.019.046-.009.023-.004.011-.034.066-.129.221c-.357.593-.827.975-1.215 1.325-.389.345-.683.668-.813.93a1.013 1.013 0 0 0-.105.417c-.007.074.01.13.003.196.013.097.056.239.075.357.058.288.253.699.465 1.014.201.348.476.642.722.928.508.564 1.009 1.007 1.359 1.325l.567.497Z"/>
    <path fill="#592221" d="M198.308 13.438c.325-.753-.534-4.64.247-6.46.778-1.818 4.824-3.889 9.306-5.469 4.7-1.65 10.085-2.091 16.252-.6 6.162 1.496 11.677 5.517 11.625 12.067-.038 5.494-.852 14.648-2.016 15.114-1.168.463-5.524 2.085-5.524 2.085s-2.637-6.388-1.854-8.208c.779-1.815-1.784-7.864-2.974-8.276-.966.042-8.482 2.24-13.091 2.338-4.607.093-7.212-3.493-7.235-3.467 0 0-1.501 1.823-2.428 3.403-.926 1.581-2.686 6.167-2.686 6.167s-.961-1.004-.948-3.479c.01-2.477.641-3.603 1.326-5.215Z"/>
    <path stroke="#D3ECFE" stroke-linecap="round" stroke-linejoin="round" stroke-miterlimit="10" stroke-width="1.973" d="M226.527 31.1s5.831-6.415 6.655-1.957c1.142 6.198-1.473 8.455-7.365 9.275"/>
    <path fill="#F5AA8A" d="M230.757 24.288c3.651-1.27 5.595 3.019 4.178 8.005-.89 3.13-5.199 4.568-7.014 3.675.145-3.19-.541-10.503 2.836-11.68Z"/>
    <path fill="#D3ECFE" d="M210.807 31.91c10.414.321 15.866-1.766 15.866-1.766s1.976 11.01-1.898 14.313c-3.631 3.089-10.016 5.393-15.984 4.161-5.967-1.23-8.069-5.407-9.525-8.668-1.463-3.261-1.494-10.674-1.494-10.674s2.618 2.315 13.035 2.635Z"/>
    <path fill="#B1D7DE" d="M199.222 31.817s3.085 2.398 10.576 2.702c7.888.317 15.558-2.356 15.558-2.356l.214 2.037s-10.451 2.284-15.434 1.882c-4.98-.403-10.543-1.999-10.543-1.999l-.371-2.266ZM200.114 37.982s2.859 1.767 9.886 2.058c7.397.298 15.39-2.318 15.39-2.318l-.141 1.919s-10.261 2.237-14.929 1.86c-4.674-.373-9.888-1.873-9.888-1.873l-.318-1.646ZM224.118 42.755c-2.881.755-8.169 1.899-13.192 1.691-5.198-.21-8.107-1.231-9.278-1.75.136.518.289 1.035.457 1.546 1.605.425 5.533 1.382 9.135 1.671 3.149.251 8.817-.678 12.192-1.313.325-.47.532-1.127.686-1.845Z"/>
    <path fill="#F5AA8A" d="M209.946 133.131s-12.343-6.267-19.28-2.768c-6.935 3.503-9.738 8.33-10.319 10.483-1.186 4.365 1.561 3.97 1.561 3.97s-.558.922.512 1.975c1.071 1.053 1.982 1.39 1.982 1.39s.205 1.634.678 1.96c.47.328.918.505 1.279.464 1.475-.169 9.646-5.994 13.496-7.166 1.621-.495 3.356.86 5.412 1.299 2.833.602 6.139-1.686 6.139-1.686s1.198-7.11-1.46-9.921Z"/>
    <path stroke="#CB8469" stroke-linecap="round" stroke-linejoin="round" stroke-miterlimit="10" stroke-width=".915" d="M188.445 134.708s-2.597 2.053-3.976 4.462c-1.381 2.406-2.561 5.647-2.561 5.647M192.827 136.515s-2.665.521-4.366 3.187c-1.703 2.667-4.011 7.652-4.011 7.652M184.84 148.627s4.12-3.994 6.071-5.854c1.64-1.558 4.935-2.317 4.935-2.317"/>
    <path fill="#F2F0EB" d="M250.128 59.172c-3.93.857-8.906 7.069-10.462 18.299-1.558 11.228-5.122 32.906-5.525 35.013-.402 2.108-5.615 4.825-10.039 7.527-2.503 1.529-11.168 8.071-11.168 8.071l-5.75 2.201s1.934 5.217 2.769 7.828c.834 2.61 1.177 7.068 1.177 7.068l5.232-1.345s9.327-.924 14.435-2.15c9.429-2.265 23.745-5.754 26.447-11.752 2.702-5.998 4.358-31.58 5.251-40.523.897-8.942-.645-21.78-2.815-25.417-2.165-3.637-5.621-5.676-9.552-4.82Z"/>
    <path stroke="#DCD8DA" stroke-miterlimit="10" stroke-width=".915" d="M212.776 128.084s1.818 3.476 2.773 7.844c.955 4.367.425 7.592.425 7.592"/>
    <path fill="#DCD8DA" d="M221.547 139.221a1.312 1.312 0 0 1-1.292 1.335 1.313 1.313 0 1 1-.046-2.624 1.312 1.312 0 0 1 1.338 1.289Z"/>
    <path fill="#E9DBDA" d="M217.051 127.748c2.134 1.713 7.742 1.615 7.269 14.575-.474 12.96-1.139 35.025-1.735 40.986-.598 5.961-1.906 11.235.911 11.886 2.816.651 5.228-1.842 5.228-1.842s2.152 2.762 6.704 2.332c4.552-.429 5.199-3.591 8.004-3.64 2.803-.048 4.535-1.479 6.243-3.96 1.709-2.48 2.818-19.302 2.657-28.4-.158-9.099-2.683-32.858-7.337-38.377-4.657-5.519-11.526-7.237-13.109-7.472-1.582-.234-2.827 1.297-6.605 3.266-.999.522-3.107 2.855-3.107 2.855s-3.845.768-5.566 2.548c-1.722 1.781-1.692 3.53.443 5.243Z"/>
    <path stroke="#D8BBBD" stroke-miterlimit="10" stroke-width=".915" d="M225.502 124.713c2.708 4.415 5.673 13.466 5.2 26.425-.474 12.961-1.318 39.753-1.318 39.753M229.064 117.825s6.902 3.554 9.483 15.848c2.585 12.294 2.837 26.729 2.684 33.032-.152 6.304.162 24.151.162 24.151M240.873 131.27s3.765 19.625 3.648 28.027c-.103 7.616.023 31.242.023 31.242"/>
    <path fill="#433431" d="M14.635 300.322c-.892 9.789-5.796 33.817-7.134 38.713-1.178 4.314-2.228 7.12 2.23 6.674 4.46-.444 5.35-1.334 8.025-8.899 2.675-7.565 6.453-27.176 8.025-37.377 1.784-11.57 2.676-42.717 2.676-42.717H16.418c0-.001-.892 33.817-1.783 43.606ZM59.998 244.255c-.266 9.241-.969 31.885-1.671 39.602-.892 9.79-5.796 33.818-7.134 38.713-1.179 4.314-2.228 7.119 2.23 6.675 4.458-.445 5.35-1.334 8.026-8.9 2.675-7.564 6.452-27.176 8.025-37.377 1.39-9.018 2.238-29.927 2.545-38.713h-12.02ZM95.644 300.321c-.893-9.789-1.784-43.606-1.784-43.606H81.824s.892 31.147 2.675 42.717c1.573 10.201 5.35 29.813 8.026 37.376 2.675 7.566 3.566 8.456 8.025 8.9 4.458.445 3.408-2.36 2.23-6.674-1.34-4.894-6.244-28.923-7.136-38.713ZM128.19 283.857c-.705-7.718-1.406-30.362-1.673-39.602h-12.018c.307 8.786 1.155 29.696 2.544 38.713 1.573 10.201 5.35 29.812 8.026 37.377 2.674 7.566 3.567 8.455 8.025 8.9 4.459.445 3.409-2.361 2.229-6.675-1.337-4.895-6.241-28.923-7.133-38.713Z"/>
    <path fill="#563E3E" d="M44.06 152.296s-27.198-1.483-33.884 0c-4.802 1.065-12.484 2.967-9.512 14.239 2.974 11.273 8.323 49.836 8.916 65.855.595 16.019.597 29.072 8.325 30.852 7.727 1.78 66.577 0 66.577 0s10.106.001 22.59-4.746a7629.257 7629.257 0 0 0 20.211-7.713s7.727-4.746-7.727-6.526c-15.457-1.78-67.766.592-67.766.592l-7.73-92.553Z"/>
    <path fill="#6E5550" d="M119.555 244.255c-15.457-1.779-67.766.593-67.766.593l-7.728-92.554s-27.197-1.483-33.884 0a46.55 46.55 0 0 0-2.052.495c-.699 1.94-.79 4.509.12 7.96 2.974 11.272 8.323 49.837 8.918 65.856.214 5.804.594 11.42.808 15.85.395 8.177.232 15.148.232 15.148s24.548-1.902 28.533-1.78c18.44.562 45.921.446 45.921.445 0 0 9.511 1.187 21.995-3.559a9614.983 9614.983 0 0 0 14.262-5.436c-.78-1.151-3.261-2.315-9.359-3.018Z"/>
    <path fill="#F5AA8A" d="M88.206 169.619s1.602 9.132 2.288 13.926c.686 4.795 1.144 16.667 1.144 16.667l4.117.913 1.15 8.604s-13.731 4.866-18.306.072c-4.575-4.795-2.516-41.781-2.516-41.781l12.123 1.599Z"/>
    <path stroke="#DC8C7A" stroke-miterlimit="10" stroke-width=".939" d="M83.403 200.669s4.503-.915 8.006-.228"/>
    <path fill="#E49E80" d="m135.442 286.443 6.954 26.326 15.85-2.819-5.804-27.569-17 4.062Z"/>
    <path fill="#448294" d="M72.805 212.585s62.819-7.11 70.207 6.98c7.387 14.088 14.806 71.201 13.439 73.24-1.368 2.037-20.723 4.135-21.365 1.941-1.17-4.003-12.159-45.369-15.236-49.404-3.072-4.034-27.316 2.62-39.345 3.044-12.475.447-30.506 3.22-34.96-3.918-4.156-6.662-3.774-26.124-3.774-26.124l31.034-5.759Z"/>
    <path stroke="#30A1B6" stroke-miterlimit="10" stroke-width=".915" d="M50.824 239.651s.401.286 1.15.741"/>
    <path stroke="#30A1B6" stroke-dasharray="2.79 1.86" stroke-miterlimit="10" stroke-width=".915" d="M53.585 241.317c4.937 2.678 15.934 7.356 28.442 4.366 17-4.064 40.625-10.721 43.595-3.997 2.567 5.806 11.928 38.877 14.435 47.79"/>
    <path stroke="#30A1B6" stroke-miterlimit="10" stroke-width=".915" d="m140.309 290.372.369 1.316"/>
    <path fill="#F5AA8A" d="m105.978 296.884 3.295 27.056 16.082-.514-1.986-28.125-17.391 1.583Z"/>
    <path fill="#4C96A6" d="M53.208 216.422s61.002 4.287 68.167 16.438c8.102 13.738 6.175 71.511 4.543 73.333-1.634 1.821-21.075.623-21.414-1.641-.613-4.129-6.884-44.186-9.379-48.62-2.495-4.433-21.94-2.675-36.58-2.371-6.422.133-17.628.057-23.485-1.827-5.534-1.78-10.732-5.559-12.402-9.301-3.205-7.192-.173-26.404-.173-26.404l30.723.393Z"/>
    <path stroke="#6BBACA" stroke-miterlimit="10" stroke-width=".915" d="M41.394 221.353s-1.788 9.916-15.278 10.9M28.544 238.423s.358.339 1.035.895"/>
    <path stroke="#6BBACA" stroke-dasharray="2.78 1.86" stroke-miterlimit="10" stroke-width=".915" d="M31.039 240.456c4.516 3.358 14.779 9.58 27.589 8.414 17.391-1.583 39.065-2.394 41.092 4.689 1.741 6.084 7.018 37.662 8.471 46.44"/>
    <path stroke="#6BBACA" stroke-miterlimit="10" stroke-width=".915" d="m108.343 300.916.222 1.35"/>
    <path fill="#FD5103" d="M158.439 308.71s11.062 7.241 21.876 13.68c4.201 2.502 8.053 7.078 3.484 10.749-2.268 1.823-14.55 4.359-22.838.619-9.442-4.255-17.551-3.926-20.279-7.12-2.727-3.196.972-15.109.972-15.109l16.785-2.819Z"/>
    <path fill="#FD5103" d="M161.099 319.556s-7.868-3.46-10.76-7.44l10.76 7.44Z"/>
    <path stroke="#A16529" stroke-miterlimit="10" stroke-width=".915" d="M161.099 319.556s-7.868-3.46-10.76-7.44"/>
    <path fill="#FD5103" d="M184.147 328.386s-2.225 2.746-7.928 3.387c-5.697.645-9.126.615-14.147-.934-5.018-1.551-7.773-3.772-11.947-4.717-4.175-.949-7.605-.976-9.51-2.593"/>
    <path stroke="#A16529" stroke-miterlimit="10" stroke-width=".915" d="M184.147 328.386s-2.225 2.746-7.928 3.387c-5.697.645-9.126.615-14.147-.934-5.018-1.551-7.773-3.772-11.947-4.717-4.175-.949-7.605-.976-9.51-2.593"/>
    <path fill="#FD5103" d="M125.905 322.316s9.13 9.556 18.198 18.272c3.527 3.39 6.238 8.717.955 11.261-2.625 1.259-15.162.95-22.387-4.569-8.226-6.281-16.199-7.793-18.128-11.52-1.932-3.73 4.375-14.496 4.375-14.496l16.987 1.052Z"/>
    <path stroke="#A16529" stroke-miterlimit="10" stroke-width=".915" d="M126.033 333.481s-6.878-5.147-8.792-9.682M146.476 347.296s-2.79 2.17-8.49 1.508c-5.697-.664-9.027-1.472-13.566-4.117-4.54-2.646-6.712-5.429-10.565-7.296-3.853-1.866-7.185-2.669-8.675-4.675"/>
    <path fill="#8DB1CC" d="M126.125 302.017s-3.975 1.939-10.453 1.629c-6.483-.311-11.682-2.597-11.682-2.597s-1.814 3.497-.171 5.852c1.643 2.354 5.529 3.618 11.878 4.311 6.34.691 10.681-1.11 11.736-3.518 1.046-2.403-1.308-5.677-1.308-5.677Z"/>
    <path fill="#88A5BD" d="M156.571 289.022s-3.476 2.732-9.876 3.789c-6.402 1.059-12.184-1.262-12.184-1.262s-.822 4.975 1.284 6.934c2.104 1.955 6.165 2.375 12.517 1.719 6.349-.657 10.214-3.329 10.734-5.903.518-2.572-2.475-5.277-2.475-5.277Z"/>
    <path fill="#5F6775" d="M35.199 224.793c-4.342 2.276-11.604 5.209-13.906 6.741-2.304 1.534-3.312-4.459-3.008-7.503.305-3.044 1.22-5.479 1.22-5.479s-.443-8.302-.217-11.864c.244-3.861.461-7.605.468-10.789.048-19.505-2.69-48.883 3.257-58.472 5.948-9.589 20.892-12.328 36.6-11.872 15.707.457 23.637 7.154 25.467 14.155 1.83 7.002 3.355 16.742 3.355 20.395 0 3.653 2.135 8.828 1.22 10.046-.915 1.217-6.405 1.826-6.405 1.826s-2.07 11.701-2.135 14.916c-.304 14.916-.316 25.098-.316 25.098s-13.607 2.717-21.882 4.599c-8.274 1.882-15.64 3.967-23.718 8.203Z"/>
    <path fill="#5F6775" d="M80.2 137.58s2.135 7.61 2.44 12.785c.305 5.175 1.525 17.655.61 21.613"/>
    <path stroke="#5F6DA2" stroke-miterlimit="10" stroke-width=".915" d="M80.2 137.58s2.135 7.61 2.44 12.785c.305 5.175 1.525 17.655.61 21.613"/>
    <path fill="#5F6775" d="M20.116 220.075s15.554-7.306 29.28-9.74l-29.28 9.74Z"/>
    <path stroke="#5F6DA2" stroke-miterlimit="10" stroke-width=".915" d="M20.116 220.075s15.554-7.306 29.28-9.74"/>
    <path fill="#F5AA8A" d="m66.274 118.294.574 7.946s.488 8.214-6.71 9.132c-7.198.921-12.635-9.712-12.635-9.712l-.02-13.083 18.791 5.717Z"/>
    <path fill="#592C30" d="M71.675 86.034s6.48 3.704 6.328 12.567c-.153 8.864-3.915 9.411-6.94 7.256-3.027-2.153-12.292-13.166-12.292-13.166l3.887-10.06 9.017 3.403Z"/>
    <path fill="#F5AA8A" d="M73.101 91.463c3.64 10.081 3.201 30.212-7.474 31.429-10.675 1.218-16.78-.002-22.028-16.594-5.251-16.598 4.17-23.51 8.449-24.347 3.325-.648 17.402-.567 21.053 9.512Z"/>
    <path fill="#522C31" d="M55.184 105.145a1.623 1.623 0 0 0 3.075-1.047 1.626 1.626 0 0 0-2.063-1.01 1.619 1.619 0 0 0-1.012 2.057ZM69.22 104.551c.31.9 1.247 1.394 2.098 1.107.846-.291 1.287-1.253.979-2.157-.308-.901-1.247-1.394-2.097-1.105-.849.287-1.287 1.255-.98 2.155Z"/>
    <path fill="#D27D73" d="M63.87 101.211c.392.827.702 1.669.968 2.519.147.422.25.852.376 1.277.13.426.213.859.322 1.288l-.348-.522c.396.221.736.457 1.082.721.343.262.687.532 1 .86.157.158.307.34.456.524.144.201.29.386.412.641.126.23.24.524.257.875.035.333-.072.784-.295 1.057l-.169.213-.044.05-.057.051-.003.003-.008.005-.015.011-.062.044-.25.176-.514.335c-.179.107-.323.231-.531.326l-.603.274a7.868 7.868 0 0 1-1.198.459c-.4.121-.807.228-1.224.291.322-.273.633-.547.95-.804.329-.247.613-.522.908-.763l.435-.363c.149-.103.289-.277.434-.412l.432-.432.224-.206.057-.053.014-.012.007-.007.004-.002.002-.002-.051.046v-.011a.088.088 0 0 1 .007-.034c.024-.017.005-.034 0-.041.012.001-.012-.03-.018-.051.008-.013-.03-.066-.047-.108a.541.541 0 0 0-.079-.158c-.053-.113-.167-.244-.263-.369-.114-.127-.226-.254-.36-.378-.257-.25-.529-.513-.825-.75-.291-.238-.61-.479-.894-.702l-.323-.254-.026-.268c-.042-.44-.109-.877-.13-1.32-.025-.443-.072-.883-.076-1.33a18.881 18.881 0 0 1 .065-2.694Z"/>
    <path fill="#592C30" d="m73.595 101.414.193-.023c.602-.074.787-.738.3-1.105-1.192-.9-4.021-1.403-5.23-.35-.447.388-.037.974.43 1.035.69.092 1.408-.159 2.125-.104.782.06 1.463.334 2.218.502l-.142-1.084-.171.104c-.429.262-.296 1.095.277 1.025ZM59.953 100.07c-.542-.704-1.822-.725-2.62-.81-1.331-.142-3.077.115-4.125.986-.218.182-.177.54 0 .727l-.01-.14c-.018.102.008.233.114.282l.095.044c.254.12.497.017.596-.242l.066-.171-.497.377c1.16.061 2.215-.635 3.392-.623.398.003.798.056 1.194.094.197.019 1.063.07 1.041.054.383.303 1.115-.108.754-.578Z"/>
    <path fill="#fff" d="M66.956 113.825c-.636.221-2.954.351-3.445.298-2.45-.269-3.925-3.028-5.01-2.284-1.085.744-2.351 4.979 1.577 6.194 5.214 1.615 6.877-4.208 6.877-4.208Z"/>
    <path stroke="#CB8469" stroke-linecap="round" stroke-linejoin="round" stroke-miterlimit="10" stroke-width=".915" d="M66.591 122.783s-4.682 1.309-8.025.622c-3.342-.686-5.208-1.632-5.208-1.632"/>
    <path fill="#592C30" d="M76.523 85.24c-3.173-3.085-5.75-3.39-5.75-3.39s-3.033-5.34-9.786-6.923c-6.753-1.583-10.419 4.15-10.419 4.15s-5.946-1.567-9.593 3.36c-3.65 4.927-1.771 12.59 3.895 13.764 5.666 1.174 8.21-5.146 8.21-5.146s6.892 2.713 10.136 1.971c3.247-.743 5.582-3.607 5.582-3.607s2.585 7.311 7.596 6.036c3.726-.949 3.297-7.131.129-10.214Z"/>
    <path fill="#592C30" d="M41.653 86.616s-6.268 3.882-6.08 9.053c.187 5.172 3.524 7.799 3.524 7.799s3.5.782 4.807 3.172c1.308 2.39 3.136 2.324 4.312 1.063.342-.367.264-4.049.264-4.049s1.029-2.394.897-6.045c-.133-3.65-.907-8.192-.907-8.192l-6.817-2.8Z"/>
    <path fill="#F5AA8A" d="M45.752 105.264c-.845-3.329-6.708-4.937-7.384-.935-.677 4.004 2.622 8.752 6.513 9.172 3.893.415 1.721-4.912.871-8.237ZM121.039 207.327c-.62-2.787-3.485-6.141-5.905-6.882-3.265-1-8.792-2.693-12.083-1.793-1.136.312-6.625.978-8.623 2.193-1.997 1.215-.295 7.06 1.46 8.854.613.011 1.254.021 1.931.03 2.771.035 7.631.71 8.864.839 2.128.224 4.37 2.186 5.5.207 1.128-1.977-2.743-3.327-1.387-3.487.689-.082 2.09.022 3.276 1.369 1.154 1.309 2.231 2.549 3 3.222 1.883 1.649 3.128-1.457 3.128-1.457s1.448-.364.839-3.095Z"/>
    <path stroke="#DC8C7A" stroke-miterlimit="10" stroke-width=".939" d="M119.736 209.617s-1.536-3.146-3.816-4.938c-2.278-1.794-6.291-1.812-6.291-1.812M110.485 207.488c-.772-1.103-4.613-2.025-5.814-1.847"/>
    <path fill="#6E5550" d="M212.231 354.852c0 4.409-14.099 6.02-31.488 6.02-17.395 0-31.488-1.611-31.488-6.02 0-4.412 14.093-7.989 31.488-7.989 17.389 0 31.488 3.577 31.488 7.989Z"/>
    <path fill="#433431" d="M176.289 213.95v135.868h.019c.092 1.369 2.036 2.47 4.435 2.47 2.397 0 4.341-1.101 4.433-2.47h.019V213.95h-8.906Z"/>
    <path fill="#957765" d="M180.743 212.924H78.663s.051 3.075.104 5.704c.041 1.945.593 3.173 1.866 3.967.965.602 4.48 1.554 12.075 2.05 23.938 1.562 71.688.669 88.035.8 16.347-.131 64.097.762 88.035-.8 7.597-.496 11.111-1.448 12.076-2.05 1.272-.794 1.824-2.021 1.865-3.967.055-2.629.104-5.704.104-5.704h-102.08Z"/>
    <path fill="#AE8B76" d="M180.743 210.656c-21.608.066-102.08.625-102.08 2.268 0 1.644 9.28 3.17 102.08 3.17 92.802 0 102.08-1.525 102.08-3.17.001-1.643-80.47-2.202-102.08-2.268Z"/>
    <path fill="#F3F3F3" d="M208.281 211.991c0 1.166-6.775 2.112-15.133 2.112-8.358 0-15.133-.946-15.133-2.112 0-1.166 6.775-2.112 15.133-2.112 8.357 0 15.133.946 15.133 2.112Z"/>
    <path fill="#D7D7D7" d="M193.148 213.066c5.857 0 10.605-.595 10.605-1.329s-4.748-1.329-10.605-1.329-10.605.595-10.605 1.329 4.748 1.329 10.605 1.329Z"/>
    <path fill="#FBFBFB" d="M193.148 195.866c-7.567 0-11.582 1.168-11.582 1.168 0 2.724 2.625 10.12 4.323 11.482 1.699 1.363 3.953 2.167 7.26 2.167 3.306 0 5.559-.804 7.259-2.167 1.697-1.362 4.323-8.758 4.323-11.482-.001 0-4.017-1.168-11.583-1.168Z"/>
    <path fill="#EEE" d="M181.825 197.323c0 .422 5.07.764 11.323.764 6.254 0 11.323-.343 11.323-.764 0-.422-5.069-1.155-11.323-1.155-6.253 0-11.323.732-11.323 1.155Z"/>
    <path fill="#FBFBFB" d="M201.395 208.26c-.745 0-1.214-.115-1.26-.127l.25-1.078c.022.005 2.379.562 5.031-1.16 1.604-1.041 2.67-2.56 2.783-3.962.064-.797-.196-1.49-.754-2.007-1.547-1.433-3.495.175-3.515.19l-.663-.865c.915-.769 3.111-1.791 4.878-.157.808.748 1.203 1.788 1.109 2.933-.141 1.747-1.398 3.591-3.282 4.812-1.808 1.176-3.488 1.421-4.577 1.421Z"/>
    <path fill="#EEE" d="M193.148 209.541c-6.14 0-9.372-5.458-10.244-6.721.894 2.532 2.063 4.971 2.967 5.696a60.517 60.517 0 0 1 1.987 1.651c-1.049.237-1.687.543-1.687.879 0 .746 3.124 1.351 6.977 1.351s6.976-.605 6.976-1.351c0-.336-.637-.642-1.686-.879.341-.298.966-.832 1.987-1.651.905-.725 2.073-3.164 2.966-5.696-.871 1.263-4.105 6.721-10.243 6.721Z"/>
    <path fill="#F3F3F3" d="M121.966 212.6c0 1.166-6.775 2.111-15.133 2.111-8.358 0-15.133-.945-15.133-2.111 0-1.166 6.775-2.112 15.133-2.112 8.358 0 15.133.946 15.133 2.112Z"/>
    <path fill="#D7D7D7" d="M117.438 212.345c0 .734-4.748 1.329-10.605 1.329-5.856 0-10.605-.595-10.605-1.329 0-.733 4.748-1.329 10.605-1.329 5.856.001 10.605.596 10.605 1.329Z"/>
    <path fill="#433431" d="M272.767 274.392c.266 9.241.969 31.885 1.672 39.602.891 9.79 5.795 33.818 7.133 38.713 1.179 4.315 2.229 7.12-2.229 6.675-4.458-.444-5.35-1.334-8.026-8.899-2.675-7.564-6.452-27.177-8.024-37.378-1.39-9.017-2.238-29.926-2.545-38.713h12.019Z"/>
    <path fill="#323D67" d="M251.02 330.316s.293 2.663-.143 5.756c-.359 2.549-1.537 5.299-3.153 8.301-1.49 2.766-3.958 4.52-6.346 8.704-1.838 3.225.209 6.784 3.315 7.888 5.763 2.053 15.142-4.012 18.05-9.546 2.822-5.367 6.509-8.212 9.594-9.948 3.086-1.733 5.308-6.703 2.041-10.509-1.296-1.514-3.473-3.493-5.86-5.714-2.82-2.631-4.877-4.966-4.877-4.966l-12.621 10.034Z"/>
    <path fill="#DBA990" d="M255.433 344.651c4.561-4.238 6.963-9.655 10.275-13.354 1.818-2.033 3.11-3.794 2.937-5.934a7.289 7.289 0 0 0-.127-.115c-2.821-2.631-4.878-4.966-4.878-4.966l-12.621 10.033s.293 2.663-.142 5.756c-.36 2.549-1.537 5.3-3.153 8.301a13.099 13.099 0 0 1-.948 1.49c1.132 1.844 4.839 2.333 8.657-1.211Z"/>
    <path fill="#212A3F" d="M222.549 254.816c-5.823.067-9.235 1.863-10.161 11.967-.926 10.104 20.138 45.519 23.175 52.295a1312.772 1312.772 0 0 1 6.267 14.273s7.971.221 14.062-3.25c6.093-3.471 12.085-10.308 12.085-10.308s-16.048-32.157-19.883-38.632c-3.834-6.474-12.03-19.019-12.03-19.019s-7.691-7.391-13.515-7.326Z"/>
    <path fill="#43528B" d="M222.025 341.949s-.268 2.668-1.337 5.602c-.881 2.419-2.606 4.868-4.81 7.469-2.032 2.399-4.81 3.601-8.017 7.202-2.468 2.77-1.204 6.677 1.604 8.401 5.211 3.202 15.647-.788 19.642-5.601 3.875-4.667 8.073-6.686 11.453-7.744 3.379-1.057 6.586-5.458 4.181-9.86-.954-1.744-2.672-4.134-4.543-6.801-2.214-3.158-3.741-5.868-3.741-5.868l-14.432 7.2Z"/>
    <path fill="#F5AA8A" d="M223.361 356.886c5.345-3.2 8.819-8 12.828-10.934 2.201-1.613 3.83-3.068 4.107-5.196l-.099-.138c-2.214-3.159-3.74-5.869-3.74-5.869l-14.431 7.201s-.268 2.668-1.336 5.603c-.882 2.418-2.606 4.867-4.811 7.468-.385.455-.798.867-1.235 1.261.722 2.038 4.248 3.281 8.717.604Z"/>
    <path fill="#344163" d="M209.865 262.2c-5.711-1.14-9.42-.09-12.427 9.603-3.004 9.692 10.241 48.698 11.802 55.955a1298.18 1298.18 0 0 1 3.165 15.259s7.749 1.868 14.43-.268c6.68-2.133 13.963-7.58 13.963-7.58s-9.014-34.781-11.419-41.908c-2.406-7.128-7.816-21.097-7.816-21.097s-5.988-8.824-11.698-9.964Z"/>
    <path fill="#433431" d="M318.131 327.718c.89 9.79 5.794 33.818 7.133 38.714 1.177 4.314 2.228 7.119-2.231 6.674-4.459-.444-5.347-1.334-8.023-8.9-2.676-7.564-6.454-27.175-8.026-37.376-1.784-11.571-2.676-42.718-2.676-42.718h12.039c.001 0 .893 33.818 1.784 43.606ZM237.121 334.567c.892-9.79 1.784-43.606 1.784-43.606h12.036s-.892 31.147-2.675 42.718c-1.573 10.2-5.35 29.812-8.025 37.376-2.676 7.565-3.567 8.456-8.025 8.899-4.458.446-3.408-2.359-2.23-6.673 1.339-4.895 6.243-28.924 7.135-38.714ZM204.575 318.104c.705-7.719 1.407-30.362 1.673-39.602h12.018c-.307 8.786-1.154 29.695-2.544 38.712-1.573 10.201-5.35 29.814-8.025 37.379-2.674 7.564-3.566 8.454-8.025 8.898-4.459.446-3.408-2.36-2.229-6.675 1.337-4.895 6.24-28.922 7.132-38.712Z"/>
    <path fill="#563E3E" d="M314.286 292.219c-4.235 2.951-66.003 1.158-66.003 1.158s-10.106.001-22.59-4.746c-12.484-4.747-20.211-7.713-20.211-7.713s-7.727-4.746 7.727-6.526c15.457-1.78 67.767.593 67.767.593s15.466 1.708 25.074 6.274c9.607 4.566 12.469 8.008 8.236 10.96Z"/>
    <path fill="#344163" d="M243.805 246.561s-43.962 7.637-45.164 23.64c-.904 12.032 4.016 7.406 13.624 6.493 9.607-.914 26.597-1.692 37.552.656 8.229 1.765 31.86 3.421 33.362-6.842 1.503-10.263-1.502-20.526-5.709-23.947-4.21-3.421-33.665 0-33.665 0Z"/>
    <path fill="#5F6775" d="M303.265 257.4s-1.649-24.61-1.603-28.406c.095-7.828 2.317-27.219 2.003-42.809-.42-21.203-8.331-25.863-17.236-29.206-8.905-3.344-22.449-.8-28.461.8-6.013 1.6-16.12 10.85-13.679 29.723 2.44 18.874 1.525 24.353 1.525 34.094s-7.488 24.6-5.884 27.801c.667 1.33 12.025 15.204 27.659 16.004 15.633.801 35.676-8.001 35.676-8.001Z"/>
    <path fill="#F5AA8A" d="M210.321 218.484s-4.531-8.075-12.345-9.613c-7.817-1.54-14.529 3.616-14.561 4.2-.006.128-1.028.607-1.206 1.749-.178 1.14.403 1.485.403 1.485s-1.697.711-1.624 2.076c.074 1.367.948 1.651.948 1.651s-1.373 2.303.181 2.528c1.345.197 2.015-.359 3.403-.491 1.751-.165 3.733-.013 5.065.266 2.379.496 3.401 3.48 6.21 3.9 4.559.685 8.949.771 10.912-.639 1.965-1.409 2.614-7.112 2.614-7.112Z"/>
    <path stroke="#CB8469" stroke-linecap="round" stroke-linejoin="round" stroke-miterlimit="10" stroke-width=".915" d="M195.844 211.972s-6.922-1.362-11.805 1.282M195.366 215.661s-7.781-1.558-12.084.415M194.441 219.163s-7.683-1.579-11.986.395"/>
    <path fill="#F5AA8A" d="m209.824 216.421-3.23 9.215s12.684 2.961 25.8 1.744c13.114-1.218 21.289-2.523 24.094-8.523 2.806-6.001 5.681-31.494 4.88-41.096-.802-9.602-4.27-14.307-9.455-14.915-5.185-.609-9.15 10.959-10.065 19.482-.915 8.523-4.27 24.961-4.27 24.961s-10.98 3.044-15.249 4.262c-4.271 1.217-12.505 4.87-12.505 4.87ZM261.026 142.325l-1.487 15.345s4.575 2.131 10.98 1.522c6.405-.608 9.455-4.262 9.455-4.262l-3.165-13.555-15.783.95Z"/>
    <path fill="#F5AA8A" d="M248.172 129.487c.656-1.571.924-7.419 1.373-9.627 2.845-14.011 17.803-15.499 26.393-11.488 8.589 4.011 10.959 22.232 7.655 27.781-3.302 5.553-12.01 9.545-15.88 11.103-3.874 1.558-9.592 4.577-15.65 1.863-3.23-1.448-3.686-9.839-4.148-10.297-1.029-1.015-3.095-2.24-2.794-3.981 1.364-2.25 2.395-3.782 3.051-5.354Z"/>
    <path fill="#481609" d="M253.104 128.414c-.372-.847-1.343-1.186-2.14-.75-.795.44-1.148 1.51-.777 2.355.372.842 1.345 1.18 2.137.744.799-.438 1.15-1.507.78-2.349Z"/>
    <path fill="#954331" d="M254.844 126.392a.463.463 0 0 0 .359-.137.439.439 0 0 0 .114-.426c-.029-.106-.12-.172-.151-.266.142.432.035-.014-.113-.193-.283-.339-.82-.514-1.218-.665-1.22-.464-2.645-.614-3.914-.283-.949.247-.539 1.745.405 1.467.982-.288 1.956-.134 2.932.104.355.087.703.209 1.058.293.102.023.208.042.312.054a.412.412 0 0 0 .22-.01c.258-.086.169-.111-.266-.075-.038-.142-.075-.285-.114-.426l-.006.017.304-.303-.035.015c-.436.182-.391.794.113.834Z"/>
    <path fill="#954331" d="M293.394 153.105c-2.136-4.262-2.114-11.242-1.487-20.499.425-6.265-1.018-10.826-1.996-13.125-1.146-8.731-7.87-12.404-11.81-14.227-4.097-1.896-12.641-4.308-23.06 2.116-4.385 2.704-6.575 7.749-5.375 11.445 1.202 3.694 5.208 4.642 8.347 8.719 3.137 4.08.542 7.104 4.27 10.655a40.391 40.391 0 0 1 1.795 1.857c-.191 1.198-.727 3.649-2.1 5.449-1.884 2.469-1.445 6.549-.505 9.944.941 3.393 2.824 7.405 2.196 10.182-.627 2.777-4.133 8.793-1.388 14.272 2.745 5.48 7.016 9.133 12.506 7.002 5.489-2.131 9.149-4.87 14.029-5.783 4.88-.914 10.967-3.523 11.895-9.437.931-5.916-5.183-14.309-7.317-18.57Z"/>
    <path fill="#F5AA8A" d="M259.818 133.588s1.551-6.358 5.82-2.705c4.27 3.653-.603 9.756-4.229 9.562-3.626-.193-1.591-6.857-1.591-6.857Z"/>
    <path fill="#fff" d="M248.559 141.232s2.311-.219 3.965-.913c1.886-.792 3.173-2.028 3.66-1.217.915 1.522.915 5.783-4.271 5.783-3.368 0-3.354-3.653-3.354-3.653Z"/>
    <path fill="#563E3E" d="M315.201 292.219c7.727-1.78 7.387-13.674 7.983-29.693.593-16.019 5.942-54.584 8.916-65.856 2.974-11.272-4.709-13.173-9.512-14.239-4.372-.971-28.432.658-32.55 1.114-4.117.457-11.763 2.275-14.182 4.566-3.163 2.996-2.745 40.182-2.745 40.182l-4.575 56.62s0 8.219 16.013 7.763c16.012-.457 30.652-.457 30.652-.457ZM260.301 286.38c.125 0 .125-.193 0-.193-.124 0-.124.193 0 .193Z"/>
    <path fill="#6E5550" d="M268.704 282.843c2.136.146 4.267.343 6.398.539l4.414-54.632s-.418-37.187 2.745-40.182c2.419-2.291 10.065-4.11 14.183-4.566 3.164-.351 18.097-1.392 26.831-1.416a67.21 67.21 0 0 0-.686-.155c-4.373-.971-28.433.658-32.55 1.114-4.118.457-11.764 2.275-14.183 4.566-3.163 2.996-2.745 40.182-2.745 40.182l-4.407 54.55Z"/>
    <path fill="#FBFBFB" d="M101.612 194.648c7.567 0 11.582 1.168 11.582 1.168 0 2.724-2.625 10.12-4.324 11.482-1.699 1.362-3.952 2.167-7.259 2.167-3.307 0-5.56-.805-7.26-2.167-1.697-1.362-4.323-8.758-4.323-11.482.002 0 4.018-1.168 11.584-1.168Z"/>
    <path fill="#EEE" d="M112.935 196.105c0 .421-5.07.763-11.323.763-6.254 0-11.323-.342-11.323-.763 0-.422 5.069-1.156 11.323-1.156 6.253 0 11.323.734 11.323 1.156Z"/>
    <path fill="#FBFBFB" d="M93.365 207.043c.745 0 1.213-.115 1.26-.127l-.25-1.078c-.023.005-2.38.561-5.031-1.16-1.604-1.041-2.67-2.56-2.784-3.963-.064-.796.197-1.489.754-2.006 1.547-1.433 3.495.174 3.515.19l.664-.866c-.915-.769-3.111-1.791-4.879-.156-.808.748-1.201 1.788-1.109 2.932.141 1.747 1.398 3.591 3.282 4.813 1.808 1.175 3.488 1.421 4.578 1.421Z"/>
    <path fill="#EEE" d="M101.612 208.322c6.139 0 9.371-5.458 10.243-6.722-.894 2.533-2.062 4.972-2.966 5.697a59.598 59.598 0 0 0-1.988 1.651c1.049.237 1.687.543 1.687.879 0 .746-3.123 1.351-6.976 1.351-3.853 0-6.977-.604-6.977-1.351 0-.336.638-.642 1.686-.879a60.17 60.17 0 0 0-1.986-1.651c-.905-.725-2.074-3.164-2.967-5.697.871 1.265 4.104 6.722 10.244 6.722Z"/>
    <path fill="#F5AA8A" d="m40.086 189.165.068-24.276-20.228 1.488s-.434 29.946 6.131 35.42c0 0 5.744-.441 9.829-3.605 4.086-3.163 4.2-9.027 4.2-9.027Z"/>
    <path fill="#F5AA8A" d="M26.417 202.167c7.597 5.851 44.674 8.084 44.674 8.084l1.517-10.883s-21.98-12.613-27.157-14.679c-5.176-2.065-9.64-1.922-9.64-1.922s-5.814 1.472-7.947 4.747c-2.133 3.276-6.128 11.047-1.447 14.653Z"/>
    <path fill="#F5AA8A" d="M93.012 208.772c.17-1.675-1.28-1.213-3.884-1.109.205-.039.594-.123.594-.123s4.102-.251 4.201-2.878c.131-3.244-2.779-1.443-5.945-1.106a6.136 6.136 0 0 1-.638.037c.659-.093 1.286-.2 1.838-.323 3.104-.674 4.274-2.025 3.908-2.989-1.089-2.878-2.487-1.331-5.656-.993-1.282.136-3.052-.152-4.699-.541.446-.317 1.112-.62 1.964-.48 2.796.46 5.006-1.585 4.096-2.749-.911-1.161-5.63-3.025-10.037-1.369-4.407 1.655-8.965 1.093-11.168 5.161-1.9 3.513-2.286 7.117-.508 10.175 1.296 2.227 7.026 3.962 10.73 4.017 2.129.415 4.578.837 6.67.765 3.266-.115 4.78-.334 5.432-1.309.65-.974.153-1.325-.72-1.685a.18.18 0 0 1 .054-.01c1.674-.193 3.596-.814 3.768-2.491Z"/>
    <path stroke="#CB8469" stroke-linecap="round" stroke-linejoin="round" stroke-miterlimit="10" stroke-width=".915" d="M81.72 203.025s3.015.599 6.257.531M80.39 207.293s5.159 1.313 9.332.247M79.627 210.811s4.511 1.767 9.614.451M79.982 198.158s3.066 1.227 6.23 1.383"/>
    <path fill="#5F6775" d="M42.683 143.248s2.106 28.312.092 31.591c-2.017 3.276-24.12 4.747-26.507 2.402-2.389-2.345.515-4.71-.309-14.177-.971-11.123 2.784-23.773 8.427-27.92 11.049-8.129 18.57.038 18.297 8.104Z"/>
    <path fill="#5F6775" d="M42.211 141.313s2.536 2.97 1.434 9.116c-1.1 6.147-2.909 12.228-2.619 15.453.293 3.226 2.078 7.333 1.167 8.955-.978 1.742-3.05 1.742-3.05 1.742"/>
    <path stroke="#5F6DA2" stroke-miterlimit="10" stroke-width=".915" d="M42.211 141.313s2.536 2.97 1.434 9.116c-1.1 6.147-2.909 12.228-2.619 15.453.293 3.226 2.078 7.333 1.167 8.955-.978 1.742-3.05 1.742-3.05 1.742"/>
    <path fill="#5F6775" d="M38.123 168.249s-10.388-3.069-16.923-3.443l16.923 3.443Z"/>
    <path stroke="#5F6DA2" stroke-miterlimit="10" stroke-width=".915" d="M38.123 168.249s-10.388-3.069-16.923-3.443"/>
  </g>
  <defs>
    <clipPath id="a">
      <path fill="#fff" d="M0 0h345v380H0z"/>
    </clipPath>
  </defs>
</svg>
