<svg aria-hidden="true" style="position: absolute; width: 0; height: 0; overflow: hidden;" version="1.1" xmlns="http://www.w3.org/2000/svg" xmlns:xlink="http://www.w3.org/1999/xlink%22%3E
<defs>
<symbol id="icon-arrow" viewBox="0 0 52 32">
<path fill="#fd5103" style="fill: var(--color1, #fd5103)" d="M3.371 6.373l22.628 22.628 22.628-22.628-2.828-2.828-19.8 19.8-19.8-19.8-2.828 2.828z"></path>
</symbol>
<symbol id="icon-Red-heart" viewBox="0 0 35 32">
<path fill="#fd5103" style="fill: var(--color1, #fd5103)" d="M17.684 32l-2.564-2.302c-9.107-8.144-15.12-13.515-15.12-20.107 0-5.371 4.28-9.591 9.726-9.591 3.077 0 6.030 1.413 7.958 3.645 1.928-2.232 4.881-3.645 7.958-3.645 5.447 0 9.726 4.22 9.726 9.591 0 6.592-6.013 11.963-15.12 20.124l-2.564 2.284z"></path>
</symbol>
<symbol id="icon-Heart" viewBox="0 0 35 32">
<path fill="#fd5103" style="fill: var(--color1, #fd5103)" d="M17.684 32l-2.564-2.302c-9.107-8.144-15.12-13.515-15.12-20.107 0-5.371 4.28-9.591 9.726-9.591 3.077 0 6.030 1.413 7.958 3.645 1.928-2.232 4.881-3.645 7.958-3.645 5.447 0 9.726 4.22 9.726 9.591 0 6.592-6.013 11.963-15.12 20.124l-2.564 2.284z"></path>
<path fill="#fcfcfc" style="fill: var(--color2, #fcfcfc)" d="M17.684 28.632l-2.076-1.817c-7.373-6.429-12.24-10.67-12.24-15.874 0-4.24 3.464-7.572 7.874-7.572 2.491 0 4.882 1.115 6.442 2.877 1.56-1.762 3.951-2.877 6.442-2.877 4.409 0 7.874 3.332 7.874 7.572 0 5.204-4.867 9.444-12.24 15.888l-2.076 1.803z"></path>
</symbol>
</defs>
</svg>